<mxfile host="Electron" modified="2023-07-04T15:07:53.285Z" agent="Mozilla/5.0 (Windows NT 10.0; Win64; x64) AppleWebKit/537.36 (KHTML, like Gecko) draw.io/21.3.7 Chrome/112.0.5615.204 Electron/24.5.0 Safari/537.36" etag="ayQnelpd5jC6idPWVK7S" version="21.3.7" type="device">
  <diagram name="Страница 1" id="uJsujkAxQK0D1qKaNmbI">
    <mxGraphModel dx="1050" dy="638" grid="1" gridSize="10" guides="1" tooltips="1" connect="1" arrows="1" fold="1" page="1" pageScale="1" pageWidth="827" pageHeight="1169" math="0" shadow="0">
      <root>
        <mxCell id="0" />
        <mxCell id="1" parent="0" />
        <mxCell id="6_rvsCcQvuArJIuW88FA-1" value="Пользователь" style="shape=umlActor;verticalLabelPosition=bottom;verticalAlign=top;html=1;outlineConnect=0;" vertex="1" parent="1">
          <mxGeometry x="80" y="60" width="30" height="60" as="geometry" />
        </mxCell>
        <mxCell id="6_rvsCcQvuArJIuW88FA-2" value="" style="endArrow=none;dashed=1;html=1;rounded=0;strokeWidth=2;" edge="1" parent="1" source="6_rvsCcQvuArJIuW88FA-13" target="6_rvsCcQvuArJIuW88FA-3">
          <mxGeometry width="50" height="50" relative="1" as="geometry">
            <mxPoint x="90" y="570" as="sourcePoint" />
            <mxPoint x="90" y="150" as="targetPoint" />
          </mxGeometry>
        </mxCell>
        <mxCell id="6_rvsCcQvuArJIuW88FA-3" value="" style="rounded=0;whiteSpace=wrap;html=1;rotation=90;" vertex="1" parent="1">
          <mxGeometry x="45" y="240" width="90" height="20" as="geometry" />
        </mxCell>
        <mxCell id="6_rvsCcQvuArJIuW88FA-4" value="" style="endArrow=none;dashed=1;html=1;rounded=0;strokeWidth=2;" edge="1" parent="1" source="6_rvsCcQvuArJIuW88FA-3">
          <mxGeometry width="50" height="50" relative="1" as="geometry">
            <mxPoint x="90" y="200" as="sourcePoint" />
            <mxPoint x="90" y="150" as="targetPoint" />
          </mxGeometry>
        </mxCell>
        <mxCell id="6_rvsCcQvuArJIuW88FA-5" value="Форма регистрации" style="rounded=0;whiteSpace=wrap;html=1;" vertex="1" parent="1">
          <mxGeometry x="230" y="70" width="120" height="60" as="geometry" />
        </mxCell>
        <mxCell id="6_rvsCcQvuArJIuW88FA-6" value="" style="endArrow=none;dashed=1;html=1;rounded=0;strokeWidth=2;" edge="1" parent="1" source="6_rvsCcQvuArJIuW88FA-11">
          <mxGeometry width="50" height="50" relative="1" as="geometry">
            <mxPoint x="289.765625" y="193.75" as="sourcePoint" />
            <mxPoint x="289.5" y="130" as="targetPoint" />
          </mxGeometry>
        </mxCell>
        <mxCell id="6_rvsCcQvuArJIuW88FA-8" value="" style="endArrow=none;dashed=1;html=1;rounded=0;strokeWidth=2;" edge="1" parent="1" source="6_rvsCcQvuArJIuW88FA-15" target="6_rvsCcQvuArJIuW88FA-11">
          <mxGeometry width="50" height="50" relative="1" as="geometry">
            <mxPoint x="290" y="570" as="sourcePoint" />
            <mxPoint x="290" y="306.25" as="targetPoint" />
          </mxGeometry>
        </mxCell>
        <mxCell id="6_rvsCcQvuArJIuW88FA-9" value="Сервер" style="rounded=0;whiteSpace=wrap;html=1;" vertex="1" parent="1">
          <mxGeometry x="440" y="70" width="120" height="60" as="geometry" />
        </mxCell>
        <mxCell id="6_rvsCcQvuArJIuW88FA-10" value="" style="endArrow=none;dashed=1;html=1;rounded=0;strokeWidth=2;" edge="1" parent="1" source="6_rvsCcQvuArJIuW88FA-17">
          <mxGeometry width="50" height="50" relative="1" as="geometry">
            <mxPoint x="500" y="570" as="sourcePoint" />
            <mxPoint x="499.5" y="130" as="targetPoint" />
          </mxGeometry>
        </mxCell>
        <mxCell id="6_rvsCcQvuArJIuW88FA-11" value="" style="rounded=0;whiteSpace=wrap;html=1;rotation=90;" vertex="1" parent="1">
          <mxGeometry x="245" y="240" width="90" height="20" as="geometry" />
        </mxCell>
        <mxCell id="6_rvsCcQvuArJIuW88FA-12" value="" style="rounded=0;whiteSpace=wrap;html=1;rotation=90;" vertex="1" parent="1">
          <mxGeometry x="455" y="240" width="90" height="20" as="geometry" />
        </mxCell>
        <mxCell id="6_rvsCcQvuArJIuW88FA-14" value="" style="endArrow=none;dashed=1;html=1;rounded=0;strokeWidth=2;" edge="1" parent="1" target="6_rvsCcQvuArJIuW88FA-13">
          <mxGeometry width="50" height="50" relative="1" as="geometry">
            <mxPoint x="90" y="570" as="sourcePoint" />
            <mxPoint x="90" y="295" as="targetPoint" />
          </mxGeometry>
        </mxCell>
        <mxCell id="6_rvsCcQvuArJIuW88FA-13" value="" style="rounded=0;whiteSpace=wrap;html=1;rotation=90;" vertex="1" parent="1">
          <mxGeometry x="45" y="410" width="90" height="20" as="geometry" />
        </mxCell>
        <mxCell id="6_rvsCcQvuArJIuW88FA-16" value="" style="endArrow=none;dashed=1;html=1;rounded=0;strokeWidth=2;" edge="1" parent="1" target="6_rvsCcQvuArJIuW88FA-15">
          <mxGeometry width="50" height="50" relative="1" as="geometry">
            <mxPoint x="290" y="570" as="sourcePoint" />
            <mxPoint x="290" y="295" as="targetPoint" />
          </mxGeometry>
        </mxCell>
        <mxCell id="6_rvsCcQvuArJIuW88FA-15" value="" style="rounded=0;whiteSpace=wrap;html=1;rotation=90;" vertex="1" parent="1">
          <mxGeometry x="245" y="410" width="90" height="20" as="geometry" />
        </mxCell>
        <mxCell id="6_rvsCcQvuArJIuW88FA-18" value="" style="endArrow=none;dashed=1;html=1;rounded=0;strokeWidth=2;" edge="1" parent="1" target="6_rvsCcQvuArJIuW88FA-17">
          <mxGeometry width="50" height="50" relative="1" as="geometry">
            <mxPoint x="500" y="570" as="sourcePoint" />
            <mxPoint x="499.5" y="130" as="targetPoint" />
          </mxGeometry>
        </mxCell>
        <mxCell id="6_rvsCcQvuArJIuW88FA-17" value="" style="rounded=0;whiteSpace=wrap;html=1;rotation=90;" vertex="1" parent="1">
          <mxGeometry x="455" y="410" width="90" height="20" as="geometry" />
        </mxCell>
        <mxCell id="6_rvsCcQvuArJIuW88FA-19" value="" style="endArrow=classic;html=1;rounded=0;exitX=0.5;exitY=0;exitDx=0;exitDy=0;entryX=0.5;entryY=1;entryDx=0;entryDy=0;" edge="1" parent="1" source="6_rvsCcQvuArJIuW88FA-3" target="6_rvsCcQvuArJIuW88FA-11">
          <mxGeometry width="50" height="50" relative="1" as="geometry">
            <mxPoint x="370" y="350" as="sourcePoint" />
            <mxPoint x="420" y="300" as="targetPoint" />
          </mxGeometry>
        </mxCell>
        <mxCell id="6_rvsCcQvuArJIuW88FA-20" value="" style="endArrow=classic;html=1;rounded=0;exitX=0.5;exitY=0;exitDx=0;exitDy=0;entryX=0.5;entryY=1;entryDx=0;entryDy=0;" edge="1" parent="1" source="6_rvsCcQvuArJIuW88FA-11" target="6_rvsCcQvuArJIuW88FA-12">
          <mxGeometry width="50" height="50" relative="1" as="geometry">
            <mxPoint x="370" y="350" as="sourcePoint" />
            <mxPoint x="420" y="300" as="targetPoint" />
          </mxGeometry>
        </mxCell>
        <mxCell id="6_rvsCcQvuArJIuW88FA-21" value="" style="endArrow=classic;html=1;rounded=0;entryX=0.5;entryY=0;entryDx=0;entryDy=0;exitX=0.5;exitY=1;exitDx=0;exitDy=0;" edge="1" parent="1" source="6_rvsCcQvuArJIuW88FA-17" target="6_rvsCcQvuArJIuW88FA-15">
          <mxGeometry width="50" height="50" relative="1" as="geometry">
            <mxPoint x="370" y="350" as="sourcePoint" />
            <mxPoint x="420" y="300" as="targetPoint" />
          </mxGeometry>
        </mxCell>
        <mxCell id="6_rvsCcQvuArJIuW88FA-22" value="" style="endArrow=classic;html=1;rounded=0;entryX=0.5;entryY=0;entryDx=0;entryDy=0;exitX=0.5;exitY=1;exitDx=0;exitDy=0;" edge="1" parent="1" source="6_rvsCcQvuArJIuW88FA-15" target="6_rvsCcQvuArJIuW88FA-13">
          <mxGeometry width="50" height="50" relative="1" as="geometry">
            <mxPoint x="370" y="350" as="sourcePoint" />
            <mxPoint x="420" y="300" as="targetPoint" />
          </mxGeometry>
        </mxCell>
        <mxCell id="6_rvsCcQvuArJIuW88FA-23" value="1. Ввод логина и пароля" style="text;html=1;strokeColor=none;fillColor=none;align=center;verticalAlign=middle;whiteSpace=wrap;rounded=0;" vertex="1" parent="1">
          <mxGeometry x="110" y="210" width="120" height="30" as="geometry" />
        </mxCell>
        <mxCell id="6_rvsCcQvuArJIuW88FA-24" value="2. Отправка информации для регистрации" style="text;html=1;strokeColor=none;fillColor=none;align=center;verticalAlign=middle;whiteSpace=wrap;rounded=0;" vertex="1" parent="1">
          <mxGeometry x="310" y="210" width="160" height="30" as="geometry" />
        </mxCell>
        <mxCell id="6_rvsCcQvuArJIuW88FA-25" value="" style="endArrow=classic;html=1;rounded=0;exitX=0.25;exitY=0;exitDx=0;exitDy=0;entryX=0.75;entryY=0;entryDx=0;entryDy=0;" edge="1" parent="1" source="6_rvsCcQvuArJIuW88FA-12" target="6_rvsCcQvuArJIuW88FA-12">
          <mxGeometry width="50" height="50" relative="1" as="geometry">
            <mxPoint x="370" y="350" as="sourcePoint" />
            <mxPoint x="420" y="300" as="targetPoint" />
            <Array as="points">
              <mxPoint x="580" y="228" />
              <mxPoint x="580" y="273" />
            </Array>
          </mxGeometry>
        </mxCell>
        <mxCell id="6_rvsCcQvuArJIuW88FA-26" value="3. Проверка и сохранение информации" style="text;html=1;strokeColor=none;fillColor=none;align=center;verticalAlign=middle;whiteSpace=wrap;rounded=0;" vertex="1" parent="1">
          <mxGeometry x="590" y="235" width="160" height="30" as="geometry" />
        </mxCell>
        <mxCell id="6_rvsCcQvuArJIuW88FA-27" value="4. Возвращение сообщения об успехе или ошибке" style="text;html=1;strokeColor=none;fillColor=none;align=center;verticalAlign=middle;whiteSpace=wrap;rounded=0;" vertex="1" parent="1">
          <mxGeometry x="320" y="380" width="160" height="30" as="geometry" />
        </mxCell>
        <mxCell id="6_rvsCcQvuArJIuW88FA-28" value="5.&amp;nbsp;Отображение сообщения об успехе или ошибке" style="text;html=1;strokeColor=none;fillColor=none;align=center;verticalAlign=middle;whiteSpace=wrap;rounded=0;" vertex="1" parent="1">
          <mxGeometry x="110" y="380" width="160" height="30" as="geometry" />
        </mxCell>
      </root>
    </mxGraphModel>
  </diagram>
</mxfile>
